<?xml version="1.0" encoding="UTF-8"?>
<svg id="Layer_1" data-name="Layer 1" xmlns="http://www.w3.org/2000/svg" viewBox="0 0 666.67 666.67">
  <defs>
    <style>
      .cls-1 {
        fill: #fceea3;
      }
    </style>
  </defs>
  <path class="cls-1" d="M333.34,0C149.24,0,0,149.24,0,333.33s149.24,333.34,333.34,333.34,333.33-149.24,333.33-333.34S517.43,0,333.34,0Zm93.31,351.02l-117.67,117.67c-5,5-11.32,7.33-17.66,7.33h0s-.01,0-.01,0c0,0,0,0,.01,0h0c-6.33,0-12.67-2.34-17.67-7.34-9.67-9.67-9.67-25.67,0-35.33l100-100-100-100c-9.67-9.67-9.67-25.67,0-35.33,9.67-9.67,25.67-9.67,35.33,0l117.67,117.67c9.67,9.67,9.67,25.67,0,35.33Z"/>
</svg>