<?xml version="1.0" encoding="UTF-8"?>
<svg id="Layer_1" data-name="Layer 1" xmlns="http://www.w3.org/2000/svg" viewBox="0 0 512.09 240.19">
  <defs>
    <style>
      .cls-1 {
        fill: #133e35;
      }
    </style>
  </defs>
  <g>
    <path class="cls-1" d="M44.29,147.54H0c8.92-2.78,11.08-9.16,11.02-17.75-.24-36.99-.25-73.98,0-110.97C11.08,10.14,9.47,3.21,.2,.05,19.47,.05,38.74-.11,58,.16c4.75,.07,9.66,.98,14.19,2.47,14.78,4.84,26.62,13.22,30.65,29.25,6.1,24.21-8.88,47.05-33.81,51.39-7.29,1.27-14.81,1.22-22.27,.85,4.3-1.15,8.75-1.9,12.87-3.5,15.34-5.96,22.05-18.18,22.76-33.81,.3-6.54-.51-13.37-2.19-19.7-3.15-11.84-11.28-19.31-23.56-20.68-8.17-.91-16.52-.17-25.24-.17,0,1.57,0,3.37,0,5.16,0,39.15,0,78.31,0,117.46,0,11.68,2.09,14.61,12.89,18.66Z"/>
    <path class="cls-1" d="M109.62,52.13c11.03-2.58,20.99-4.91,31.78-7.43,0,2.2,0,3.78,0,5.35,0,20.49,0,40.99,.01,61.48,0,2.66,.07,5.33,.24,7.99,1.16,18.09,15.37,26.11,31.8,18.1,6.56-3.2,9.85-7.31,9.42-15.45-.87-16.45-.32-32.98-.33-49.47q-.01-14.84-13.3-20.69c10.55-2.46,20.61-4.8,31.35-7.31,0,2.53,0,4.31,0,6.09,0,24.66-.04,49.32,.02,73.98,.02,11.35,2.42,14.82,13.42,19.19-8.39,1.6-16.03,3.2-23.72,4.38-1.17,.18-3.36-1.31-3.85-2.52-1.46-3.62-2.32-7.49-3.57-11.84-5.91,7.3-12.87,12.39-21.68,14.7-20.67,5.41-36.48-5.41-37.44-26.6-.78-17.29-.36-34.64-.43-51.97-.05-12.26-1.01-13.67-13.72-17.98Z"/>
    <path class="cls-1" d="M416.2,98.53c1.15-21.66,8.51-37.63,25.76-47.56,22.23-12.8,49.55-4.72,62.93,18.11,12.84,21.9,8.07,52.66-10.77,69.58-26.21,23.53-67.83,9.05-76.1-26.59-1.2-5.15-1.42-10.53-1.81-13.55Zm20.69-5.29c0,2.83-.23,5.68,.04,8.48,1.21,12.54,3.72,24.76,11.62,35.01,10.45,13.55,26.22,12.63,35.41-1.8,4.79-7.51,6.54-15.93,7.32-24.59,1.41-15.83,.15-31.43-7.55-45.58-2.89-5.31-7.43-10.47-12.5-13.69-9.14-5.83-21.34-1.14-27.48,9.43-5.88,10.12-7.08,21.31-6.86,32.73Z"/>
    <path class="cls-1" d="M366.54,52.69h-13.4c14.84-6.88,23.12-19.58,31.45-32.82v26.93h23.53c.33,4.52-1.27,6.17-5.63,5.9-5.76-.36-11.57-.09-17.78-.09,0,6.71,0,13.02,0,19.32,0,16.65,.42,33.31-.12,49.94-.55,16.78,10.69,19.84,22.49,16.38,1.08-.32,2.15-.67,3.49-1.09-6.5,12.16-24.41,16.78-35.54,9.4-7.08-4.7-8.47-11.94-8.48-19.69-.03-21.14,0-42.29,0-63.43,0-3.45,0-6.89,0-10.75Z"/>
    <path class="cls-1" d="M302.32,52.19c11.2-2.63,21.16-4.97,32.09-7.53v5.71c0,26.63-.02,53.26,0,79.89,0,10.33,1.96,13.23,11.86,17.23h-41.93c9.74-3.79,11.94-6.96,11.95-16.71,.02-19.97,.03-39.94,0-59.91-.02-10.37-3.18-14.83-13.98-18.68Z"/>
    <path class="cls-1" d="M222.12,147.49c9.9-3.56,12.53-7.24,12.55-16.53,.04-19.33-.11-38.66,.06-57.99,.09-9.65-2.28-17.47-12.78-21.08,10.02-2.35,20.05-4.7,30.76-7.21v6c0,26.66,0,53.32,0,79.98,0,9.85,2.01,12.87,11.58,16.82h-42.17Z"/>
    <path class="cls-1" d="M253.07,195.12c12.46-.13,22.67,9.9,22.74,22.32,.07,12.44-10.04,22.7-22.38,22.73-12.14,.02-22.29-9.95-22.51-22.13-.22-12.46,9.77-22.8,22.15-22.92Zm-14.67,22.49c.04,8.97,6.74,15.89,15.22,15.73,8.25-.16,14.83-7.11,14.89-15.73,.06-8.59-6.55-15.54-14.87-15.63-8.67-.09-15.28,6.68-15.24,15.63Z"/>
    <path class="cls-1" d="M318.3,195.96h6.78c0,10.5,.67,20.8-.2,30.96-.74,8.64-7.84,13.59-16.45,13.26-8.56-.33-15.11-5.92-15.56-14.46-.52-9.76-.12-19.57-.12-29.69h7.09c0,7.29,0,14.71,0,22.12,0,2.16-.11,4.34,.08,6.48,.47,5.37,3.99,8.74,8.99,8.78,5.16,.04,8.78-2.97,9.08-8.52,.43-7.79,.25-15.62,.33-23.43,.02-1.78,0-3.56,0-5.5Z"/>
    <path class="cls-1" d="M190.14,195.93h23.75v5.87h-16.61v11.61h16.45v6.16h-16.56v13.6h16.76c.11,2.06,.2,3.8,.32,5.92h-24.11v-43.16Z"/>
    <path class="cls-1" d="M171.55,203.53c-2.25,.95-4.17,1.76-6.09,2.58,.12-.38,.24-.76,.36-1.14-2.53-1.19-5.03-3.19-7.59-3.27-1.76-.06-4.51,2.25-5.12,4.07-.49,1.47,1.12,4.29,2.61,5.6,1.64,1.44,4.18,1.89,6.37,2.67,8.63,3.09,11.25,6.29,10.85,13.32-.34,6.01-4.72,10.82-11.22,12.33-7,1.62-13.96-1.17-17.21-6.99-.71-1.28-1.16-2.7-1.98-4.65,2.25-.66,4.22-1.25,5.01-1.48,3.43,2.74,5.83,5.63,8.88,6.84,4.07,1.61,8.1-.88,9.14-4.62,1.21-4.31-1.3-6.55-4.83-8.01-2.76-1.14-5.64-1.99-8.39-3.15-4.61-1.95-7.01-5.42-6.75-10.54,.26-5.13,2.7-8.83,7.41-10.89,7.1-3.1,14.27-.46,18.55,7.34Z"/>
    <path class="cls-1" d="M256.87,62.38c6.69-16.82,19.02-19.55,30.17-16.15,2.84,.87,6.38,2.92,7.42,5.36,1.29,3.01-4.52,9.94-8.19,10.73-2.21,.48-4.69,.57-6.89,.08-12.66-2.78-12.64-2.85-22.51-.03Z"/>
    <path class="cls-1" d="M342.6,195.96h7.05v37.27h16.87c.1,2,.18,3.75,.29,5.88h-24.21v-43.15Z"/>
  </g>
  <path d="M324.76,30.5c-6.18,.06-11.16-4.79-11.2-10.91-.04-5.96,5.21-11.18,11.13-11.08,5.95,.1,11.11,5.38,11.03,11.26-.08,5.76-5.09,10.66-10.95,10.72Z"/>
</svg>