<?xml version="1.0" encoding="utf-8"?>
<!-- Generator: Adobe Illustrator 27.0.0, SVG Export Plug-In . SVG Version: 6.00 Build 0)  -->
<svg version="1.1" id="Layer_1" xmlns="http://www.w3.org/2000/svg" xmlns:xlink="http://www.w3.org/1999/xlink" x="0px" y="0px"
	 viewBox="0 0 800 800" style="enable-background:new 0 0 800 800;" xml:space="preserve">
<style type="text/css">
	.st0{fill:#133E35;}
</style>
<g>
	<path class="st0" d="M700,733.3c-8.6,0-17.1-3.3-23.7-9.8L554.4,600.7c-53.1,42.8-118.6,66-187.8,66c-80.1,0-155.5-31.2-212.1-87.9
		c-56.7-56.7-87.9-132-87.9-212.1s31.2-155.5,87.9-212.1c56.7-56.7,132-87.9,212.1-87.9s155.5,31.2,212.1,87.9
		c56.7,56.7,87.9,132,87.9,212.1c0,68.7-22.9,133.9-65.2,186.8l122.2,123.1c13,13.1,12.9,34.2-0.2,47.1
		C717,730.1,708.5,733.3,700,733.3z M366.7,133.3C238,133.3,133.3,238,133.3,366.7C133.3,495.3,238,600,366.7,600
		C495.3,600,600,495.3,600,366.7C600,238,495.3,133.3,366.7,133.3z"/>
</g>
</svg>
