<?xml version="1.0" encoding="UTF-8"?>
<svg id="sound-mute-alt" xmlns="http://www.w3.org/2000/svg" viewBox="0 0 666.86 533.28">
  <defs>
    <style>
      .cls-1 {
        fill: #fff;
      }
    </style>
  </defs>
  <path class="cls-1" d="M312.67,2.61c-12.41-5.22-26.75-2.46-36.33,7l-123.33,123.67H66.67C29.85,133.27,0,163.12,0,199.94v133.33c0,36.82,29.85,66.67,66.67,66.67h86.33l123.33,123.67c6.29,6.24,14.81,9.72,23.67,9.67,4.37,.11,8.71-.8,12.67-2.67,12.45-5.11,20.6-17.21,20.67-30.67V33.27c-.07-13.46-8.22-25.55-20.67-30.67Z"/>
  <path class="cls-1" d="M466.67,383.27c-8.86,.05-17.38-3.43-23.67-9.67-13.07-12.96-13.16-34.07-.19-47.14,.06-.06,.13-.13,.19-.19l166.67-166.67c13.07-13.07,34.26-13.07,47.33,0s13.07,34.26,0,47.33l-166.67,166.67c-6.29,6.24-14.81,9.72-23.67,9.67Z"/>
  <path class="cls-1" d="M633.33,383.27c-8.86,.05-17.38-3.43-23.67-9.67l-166.67-166.67c-13.07-13.07-13.07-34.26,0-47.33s34.26-13.07,47.33,0l166.67,166.67c13.07,12.96,13.16,34.07,.19,47.14-.06,.06-.13,.13-.19,.19-6.29,6.24-14.81,9.72-23.67,9.67Z"/>
</svg>