<?xml version="1.0" encoding="UTF-8"?>
<svg id="sound-max" xmlns="http://www.w3.org/2000/svg" viewBox="0 0 666.6 533.28">
  <defs>
    <style>
      .cls-1 {
        fill: #fff;
      }
    </style>
  </defs>
  <path class="cls-1" d="M545.33,511.94c-8.74-.04-17.12-3.51-23.33-9.67-12.92-13-12.92-34,0-47,104.2-104.08,104.29-272.93,.21-377.12-.07-.07-.14-.14-.21-.21-11.97-13.98-10.35-35.03,3.64-47,12.48-10.69,30.88-10.69,43.36,0,130.13,130.17,130.13,341.17,0,471.33-6.29,6.24-14.81,9.72-23.67,9.67Z"/>
  <path class="cls-1" d="M451.33,417.94c-8.91-.04-17.43-3.64-23.67-10-12.92-13-12.92-34,0-47,52.1-52.04,52.15-136.46,.1-188.56-.03-.03-.07-.07-.1-.1-11.97-13.98-10.35-35.03,3.64-47,12.48-10.69,30.88-10.69,43.36,0,77.99,78.08,77.99,204.58,0,282.67-6.15,6.28-14.54,9.87-23.33,10Z"/>
  <path class="cls-1" d="M312.67,2.61c-12.41-5.22-26.75-2.46-36.33,7l-123.33,123.67H66.67C29.85,133.27,0,163.12,0,199.94v133.33c0,36.82,29.85,66.67,66.67,66.67h86.33l123.33,123.67c6.29,6.24,14.81,9.72,23.67,9.67,4.37,.11,8.71-.8,12.67-2.67,12.45-5.11,20.6-17.21,20.67-30.67V33.27c-.07-13.46-8.22-25.55-20.67-30.67Z"/>
</svg>